<svg width="512" height="512" viewBox="0 0 512 512" fill="none" xmlns="http://www.w3.org/2000/svg">
<g clip-path="url(#clip0_3337_6647)">
<path d="M256.004 0C114.838 0 0.00390625 114.841 0.00390625 256C0.00390625 397.159 114.838 512 256.004 512C397.155 512 511.996 397.159 511.996 256C511.996 114.841 397.155 0 256.004 0ZM256.004 466.046C140.001 466.046 45.9499 372.002 45.9499 256C45.9499 139.998 140.001 45.954 256.004 45.954C371.999 45.954 466.043 139.999 466.043 256C466.043 372.002 371.999 466.046 256.004 466.046Z" fill="#33363F"/>
<path d="M229.744 190.36H177.23V321.64H229.744V190.36Z" fill="#33363F"/>
<path d="M334.764 190.36H282.258V321.64H334.764V190.36Z" fill="#33363F"/>
</g>
<defs>
<clipPath id="clip0_3337_6647">
<rect width="512" height="512" fill="white"/>
</clipPath>
</defs>
</svg>
