<svg width="530" height="556" viewBox="0 0 530 556" fill="none" xmlns="http://www.w3.org/2000/svg">
<g clip-path="url(#clip0_3337_6652)">
<path d="M33.334 455.455V99.9006C33.334 70.582 33.334 55.9063 39.5037 47.2316C44.8887 39.6603 53.1886 34.6893 62.403 33.501C72.9566 32.1397 85.901 39.0433 111.752 52.8303L445.084 230.608L445.207 230.661C473.774 245.898 488.067 253.521 492.754 263.678C496.844 272.541 496.844 282.771 492.754 291.631C488.061 301.805 473.734 309.458 445.084 324.738L111.752 502.515C85.8823 516.311 72.9606 523.191 62.403 521.828C53.1886 520.638 44.8887 515.671 39.5037 508.098C33.334 499.425 33.334 484.775 33.334 455.455Z" stroke="#33363F" stroke-width="66.6667" stroke-linecap="round" stroke-linejoin="round"/>
</g>
<defs>
<clipPath id="clip0_3337_6652">
<rect width="530" height="556" fill="white"/>
</clipPath>
</defs>
</svg>
